<svg version="1.0" xmlns="http://www.w3.org/2000/svg"
 width="334.039005pt" height="294.000201pt" viewBox="0 0 334.039005 294.000201"
 preserveAspectRatio="xMidYMid meet">
<g transform="translate(-47.960995,330.000000) scale(0.100000,-0.100000)"
fill="currentColor" stroke="none">
<path d="M912 3279 c-85 -42 -102 -93 -102 -300 l0 -159 1280 0 1280 0 0 240
0 240 -1207 0 -1208 0 -43 -21z"/>
<path d="M817 2603 c-4 -3 -7 -111 -7 -240 l0 -233 893 0 894 0 -31 62 c-29
59 -31 69 -31 178 0 111 1 119 32 178 l32 62 -888 0 c-488 0 -891 -3 -894 -7z"/>
<path d="M810 1757 c0 -154 1 -166 25 -213 14 -28 40 -59 62 -74 l37 -25 1218
-3 1218 -2 0 240 0 240 -1280 0 -1280 0 0 -163z"/>
<path d="M482 943 l3 -218 47 -3 47 -3 3 88 3 88 63 3 62 3 0 -91 0 -90 50 0
50 0 0 220 0 220 -50 0 -50 0 0 -85 0 -86 -62 3 -63 3 -3 83 -3 82 -50 0 -49
0 2 -217z"/>
<path d="M1036 1143 c-54 -184 -116 -403 -116 -412 0 -7 19 -11 49 -11 49 0
49 0 63 43 l13 42 64 0 64 0 11 -40 c11 -38 14 -40 55 -43 24 -2 47 0 51 5 5
4 -20 102 -54 218 l-63 210 -66 3 c-56 2 -66 0 -71 -15z m76 -241 c-19 -2 -36
-1 -38 1 -3 3 3 35 13 73 l17 69 21 -70 21 -70 -34 -3z"/>
<path d="M1402 943 l3 -218 47 -3 46 -3 7 75 c7 74 8 76 34 76 23 0 30 -9 56
-73 l31 -72 43 -3 c73 -5 75 -2 35 82 l-35 74 26 26 c26 26 27 31 23 117 -3
85 -5 92 -31 115 -27 23 -35 24 -158 24 l-129 0 2 -217z m216 81 c4 -51 -13
-66 -70 -62 -42 3 -43 4 -46 42 -5 61 1 67 60 64 l53 -3 3 -41z"/>
<path d="M1852 943 l3 -218 112 -3 c130 -3 177 10 194 55 6 17 9 89 7 180 -4
203 2 197 -183 201 l-135 4 2 -219z m213 105 c3 -13 5 -68 3 -123 l-3 -100
-42 -9 c-72 -15 -73 -13 -73 129 l0 125 55 0 c48 0 55 -3 60 -22z"/>
<path d="M2305 1135 c-25 -24 -25 -27 -25 -189 0 -90 3 -172 6 -181 12 -31 59
-45 154 -45 88 0 93 1 121 30 27 26 30 35 27 82 l-3 53 -45 0 c-44 0 -45 -1
-50 -35 -5 -35 -5 -35 -55 -35 l-50 0 -3 128 -3 128 53 -3 c52 -3 53 -4 56
-35 3 -32 4 -33 54 -33 l50 0 -4 61 c-6 90 -21 99 -155 99 -97 0 -106 -2 -128
-25z"/>
<path d="M2734 1148 c-37 -18 -44 -51 -44 -214 l0 -156 30 -30 30 -30 105 4
c153 5 150 1 150 219 l0 171 -28 24 c-26 22 -36 24 -125 23 -53 0 -107 -5
-118 -11z m164 -205 l-3 -128 -50 0 -50 0 -3 114 c-1 63 0 121 2 128 4 8 23
13 56 13 l51 0 -3 -127z"/>
<path d="M3110 940 l0 -221 48 3 47 3 3 73 3 72 75 0 c66 0 78 3 99 25 23 22
25 32 25 118 0 139 -2 141 -169 145 l-131 4 0 -222z m198 73 l3 -53 -50 0 -51
0 0 56 0 55 48 -3 47 -3 3 -52z"/>
<path d="M3470 1157 c0 -1 29 -67 65 -146 61 -135 65 -148 65 -217 l0 -74 50
0 50 0 0 80 c0 77 3 87 60 214 33 74 60 137 60 141 0 3 -23 5 -52 3 l-52 -3
-31 -77 c-17 -42 -33 -79 -36 -83 -4 -3 -20 32 -36 77 l-30 83 -57 3 c-31 2
-56 1 -56 -1z"/>
<path d="M1330 551 c0 -14 8 -21 28 -23 27 -3 27 -3 27 -83 0 -75 1 -80 23
-83 21 -3 22 -1 22 82 0 85 0 86 25 86 18 0 25 5 25 20 0 18 -7 20 -75 20 -67
0 -75 -2 -75 -19z"/>
<path d="M1708 559 c-15 -8 -18 -24 -18 -92 0 -51 5 -88 12 -95 12 -12 95 -16
122 -6 13 5 16 23 16 93 0 54 -5 92 -12 99 -15 15 -96 15 -120 1z m90 -96 l3
-63 -30 0 c-29 0 -29 1 -33 61 -1 33 -1 63 2 65 2 3 16 4 30 2 23 -3 25 -7 28
-65z"/>
<path d="M2086 554 c-20 -19 -23 -163 -4 -182 7 -7 38 -12 70 -12 70 0 78 10
78 108 0 54 -4 72 -18 85 -24 22 -105 23 -126 1z m92 -91 l3 -63 -31 0 -30 0
0 66 0 65 28 -3 c26 -3 27 -6 30 -65z"/>
<path d="M2470 465 l0 -105 65 0 c58 0 65 2 65 20 0 17 -7 20 -45 20 l-45 0 0
85 c0 78 -2 85 -20 85 -19 0 -20 -7 -20 -105z"/>
<path d="M2821 556 c-7 -8 -11 -34 -9 -57 3 -42 4 -43 48 -54 55 -13 70 -45
21 -45 -22 0 -31 5 -31 16 0 20 -45 15 -46 -6 -1 -37 16 -50 66 -50 72 0 80 6
80 55 0 49 -10 60 -63 69 -29 5 -37 11 -35 24 4 22 46 28 54 8 3 -9 15 -16 25
-16 22 0 27 38 7 58 -17 17 -103 15 -117 -2z"/>
<path d="M730 460 c0 -19 7 -20 165 -20 158 0 165 1 165 20 0 19 -7 20 -165
20 -158 0 -165 -1 -165 -20z"/>
<path d="M3237 466 c-3 -8 -3 -17 0 -20 4 -3 80 -6 170 -6 156 0 163 1 163 20
0 19 -7 20 -164 20 -131 0 -165 -3 -169 -14z"/>
</g>
</svg>
